<?xml version="1.0" encoding="utf-8"?>
<!-- Generator: Adobe Illustrator 23.0.3, SVG Export Plug-In . SVG Version: 6.00 Build 0)  -->
<svg version="1.1" id="Layer_1" xmlns="http://www.w3.org/2000/svg" xmlns:xlink="http://www.w3.org/1999/xlink" x="0px" y="0px"
	 viewBox="0 0 288 216" style="enable-background:new 0 0 288 216;" xml:space="preserve">
<style type="text/css">
	.st0{fill:#849974;}
	.st1{fill:none;stroke:#FFFFFF;stroke-width:4.7748;stroke-miterlimit:10;}
	.st2{fill:#FFFFFF;}
	.st3{fill:#0E2B1F;}
</style>
<g>
	<path class="st3" d="M162.43,160.68c-2.38,2.68-5.61,3.37-8.58,3.37c-4.17,0-7.74-2.18-8.88-5.36c-1.84-5.11,2.13-11.21,8.29-11.21
		c-2.78-6.9-0.1-12.7,5.76-12.7c6.9,0,6.8,6.85,1.04,10.92c0.99,2.03,2.48,4.12,4.32,6.15c0.6-4.96,3.82-9.53,7.59-9.53
		c2.9,0,5.22,2.51,4.82,5.56c-0.26,1.91-1.7,3.54-3.57,4.01c-2.91,0.74-5.55-1.19-6.01-3.86c0.45,0.4,0.99,0.65,1.64,0.65
		c1.24,0,2.48-1.04,2.48-2.63c0-1.24-0.45-2.28-1.44-2.28c-1.59,0-4.61,3.57-5.06,8.58c3.67,3.82,8.19,6.3,10.32,6.5
		c2.13,0.2,2.63-1.24,2.63-1.24l0.45,0.1l-0.05,0.2c-0.05,0.05-2.08,6.3-7.64,6.3C167.54,164.2,164.77,162.62,162.43,160.68z
		 M153.45,147.93c-2.43,2.04-2.23,5.66-0.69,8.83c1.98,3.92,6.45,5.8,9.33,3.62C158.61,157.11,155.44,152.5,153.45,147.93z
		 M161.24,136.82c-1.98-0.3-2.78,1.34-2.78,3.18c0,1.54,0.6,3.47,1.39,5.21C164.07,142.37,164.82,137.31,161.24,136.82z"/>
	<path class="st3" d="M186.71,149.33c0-7.89,6.6-14.35,14.69-14.55c6.39,0,11.49,3.26,11.49,7.41c0,2.38-1.36,4.76-4.49,4.76
		c-0.28,0-0.56-0.03-0.83-0.08c-2.31-0.42-3.34-2.56-2.06-4.54c0.27-0.42,0.5-0.97,0.6-1.69c0.44-3.25-2.06-5.72-5.26-5.01
		c-3.06,0.68-4.34,4.52-4.34,9.68c0,9.32,3.88,14.15,9.25,14.15c3.81,0,7.07-2.99,8.5-7.28l0.75,0.14
		c-1.43,6.6-5.92,11.63-13.19,11.63C193.51,163.95,186.71,157.43,186.71,149.33z"/>
	<path class="st3" d="M218.5,149.4c0-8.02,6.73-14.49,15.03-14.49c8.3,0,15.03,6.46,15.03,14.49c0,8.09-6.73,14.55-15.03,14.55
		C225.24,163.95,218.5,157.49,218.5,149.4z M238.63,149.4c0-7.89-1.56-13.87-5.1-13.87c-3.74,0-5.1,5.99-5.1,13.87
		s1.36,13.87,5.1,13.87C237.34,163.27,238.63,157.29,238.63,149.4z"/>
	<g>
		<path class="st3" d="M38.22,137.22c0-5.7,3.8-10.8,10.8-10.8c2.53,0,4.38,1.28,5.58,2.93c1.4,1.92,1.04,4.58-0.69,6.21
			c-1.29,1.21-2.63,3.37-2.63,7.12c0,4.86,2.73,8.54,7.36,8.54c4.39,0,7.83-2.97,7.83-8.54V76.95h17.32v55.88
			c0,5.93-2.49,10.56-6.53,13.88c-5.22,4.27-11.51,5.81-20.29,5.81C46.88,151.81,38.22,145.17,38.22,137.22z M65.86,60.95
			c0.05-4.95,4.2-9.1,9.15-9.15c5.91-0.06,10.48,5.19,9.29,11.16c-0.73,3.63-3.66,6.56-7.3,7.28C71.04,71.42,65.8,66.85,65.86,60.95
			z"/>
		<path class="st3" d="M89.86,115.15c0-12.22,13.29-13.05,29.78-20.88v-8.54c0-5.58-3.44-8.54-7.83-8.54c-4.27,0-8.07,1.9-8.07,7.47
			c0,2.6,0.83,4.2,1.71,5.16c1.44,1.57,1.39,4.04-0.23,5.43c-1.14,0.97-2.64,1.72-4.33,1.87c-6.17,0.59-8.9-3.92-8.9-8.3
			c0-7.24,8.9-12.93,19.93-12.93c7.59,0,13.88,2.02,18.51,5.81c4.03,3.32,6.53,7.95,6.53,13.88v19.69c0,2.14,0.36,4.03,1.9,4.03
			c0.83,0,1.42-0.59,1.66-4.03l0.95,0.12c0,6.17-4.98,11.15-11.15,11.15c-5.58,0-9.97-4.03-10.56-9.37
			c-2.73,4.51-9.25,9.37-15.66,9.37C95.91,126.54,89.86,121.56,89.86,115.15z M119.64,115.98V95.34
			c-8.19,4.74-13.29,8.9-13.29,17.32c0,3.68,2.37,7.12,5.69,7.12C115.25,119.78,117.62,118.47,119.64,115.98z"/>
		<path class="st3" d="M144.55,101.75c0-14.24,9.02-25.75,20.05-25.75c4.75,0,9.02,2.14,12.46,5.7V51.8h17.32v73.56h-17.32v-3.68
			c-3.44,3.56-7.71,4.86-12.46,4.86C153.57,126.54,144.55,115.86,144.55,101.75z M177.06,118.24v-33.1
			c-1.66-3.68-4.03-5.93-6.88-5.93c-6.05,0-8.19,9.73-8.19,22.54c0,12.7,2.49,22.42,8.19,22.42
			C173.02,124.17,175.4,121.92,177.06,118.24z"/>
		<path class="st3" d="M200.42,101.03c0-14,11.86-25.39,26.34-25.39c12.69,0,21.59,7.12,21.59,19.58h-30.85
			c0.59,15.07,7.12,23.49,16.14,23.49c6.64,0,12.34-5.22,14.83-12.7l1.3,0.24c-2.49,11.51-10.32,20.29-23.02,20.29
			C212.29,126.54,200.42,115.15,200.42,101.03z M232.46,94.03c0-9.61-1.78-17.08-6.41-17.08c-4.63,0-8.42,7.47-8.54,17.08H232.46z"
			/>
	</g>
</g>
</svg>
