<?xml version="1.0" encoding="UTF-8" standalone="no"?>
<!DOCTYPE svg PUBLIC "-//W3C//DTD SVG 20010904//EN"
              "http://www.w3.org/TR/2001/REC-SVG-20010904/DTD/svg10.dtd">

<svg xmlns="http://www.w3.org/2000/svg"
     width="135.45mm" height="135.45mm"
     viewBox="0 0 512 512">
  <path id="Selection"
        fill="none" stroke="black" stroke-width="1"
        d="M 40.00,64.52
           C 40.00,64.52 80.00,64.00 80.00,64.00
             80.00,64.00 157.00,64.00 157.00,64.00
             157.00,64.00 393.00,64.00 393.00,64.00
             393.00,64.00 464.00,64.00 464.00,64.00
             485.17,64.03 496.24,77.52 496.00,98.00
             495.77,116.56 481.92,127.97 464.00,128.00
             464.00,128.00 119.00,128.00 119.00,128.00
             119.00,128.00 48.00,128.00 48.00,128.00
             26.83,127.97 15.76,114.48 16.00,94.00
             16.19,78.73 25.57,68.40 40.00,64.52 Z
           M 40.00,224.52
           C 40.00,224.52 80.00,224.00 80.00,224.00
             80.00,224.00 157.00,224.00 157.00,224.00
             157.00,224.00 393.00,224.00 393.00,224.00
             393.00,224.00 464.00,224.00 464.00,224.00
             485.17,224.03 496.24,237.52 496.00,258.00
             495.77,276.56 481.92,287.97 464.00,288.00
             464.00,288.00 119.00,288.00 119.00,288.00
             119.00,288.00 48.00,288.00 48.00,288.00
             26.83,287.97 15.76,274.48 16.00,254.00
             16.19,238.73 25.57,228.40 40.00,224.52 Z
           M 40.00,384.52
           C 40.00,384.52 80.00,384.00 80.00,384.00
             80.00,384.00 157.00,384.00 157.00,384.00
             157.00,384.00 393.00,384.00 393.00,384.00
             393.00,384.00 464.00,384.00 464.00,384.00
             485.17,384.03 496.24,397.52 496.00,418.00
             495.77,436.56 481.92,447.97 464.00,448.00
             464.00,448.00 119.00,448.00 119.00,448.00
             119.00,448.00 48.00,448.00 48.00,448.00
             26.83,447.97 15.76,434.48 16.00,414.00
             16.19,398.73 25.57,388.40 40.00,384.52 Z" />
</svg>
